<svg width="127" height="67" fill="none" xmlns="http://www.w3.org/2000/svg"><path d="M108.495 46.353c0 24.85-20.145 8.88-44.995 8.88-44.032 0-44.995 15.97-44.995-8.88S38.65 1.358 63.5 1.358c24.85 0 44.995 20.145 44.995 44.995Z" fill="#F0F0F0"/><path d="m57.5 12.49-2 2 2 2 2-2-2-2Zm2 2 2 2 2-2-2-2-2 2Zm4 0 2 2 2-2-2-2-2 2Zm4 0 2 2 2-2-2-2-2 2Zm2 2h-17v20h22v-20h-5Zm-15 2h18v16h-6v-5h-6v5h-6v-16Zm2 2v2h2v-2h-2Zm4 0v2h2v-2h-2Zm4 0v2h2v-2h-2Zm4 0v2h2v-2h-2Zm-12 3v2h2v-2h-2Zm4 0v2h2v-2h-2Zm4 0v2h2v-2h-2Zm4 0v2h2v-2h-2Zm-12 3v2h2v-2h-2Zm4 0v2h2v-2h-2Zm4 0v2h2v-2h-2Zm4 0v2h2v-2h-2Zm-12 3v2h2v-2h-2Zm12 0v2h2v-2h-2Zm-6 2h2v3h-2v-3ZM22.19 39.81l-.74-.13v-.62h3.04v.62l-.84.13v2.51h3.04v-2.51l-.77-.13v-.62h3v.62l-.76.13v5.98l.76.1v.6h-3.01v-.6l.78-.1v-2.71h-3.04v2.71l.84.1v.6h-3.06v-.6l.76-.1v-5.98Zm7.61 3.91c0-.626.123-1.16.37-1.6.253-.44.59-.77 1.01-.99a2.84 2.84 0 0 1 1.37-.34c.84 0 1.486.26 1.94.78.46.514.69 1.214.69 2.1 0 .634-.127 1.174-.38 1.62-.247.44-.58.77-1 .99-.414.214-.87.32-1.37.32-.834 0-1.48-.256-1.94-.77-.46-.52-.69-1.223-.69-2.11Zm2.71 2.23c.753 0 1.13-.726 1.13-2.18 0-.76-.09-1.336-.27-1.73-.18-.4-.474-.6-.88-.6-.774 0-1.16.727-1.16 2.18 0 .76.093 1.34.28 1.74.193.394.493.59.9.59Zm5.259.63c-.42 0-.73-.096-.93-.29-.2-.193-.3-.5-.3-.92V41.7h-.65v-.52c.053-.02.15-.053.29-.1.14-.053.246-.096.32-.13.113-.086.21-.236.29-.45.06-.14.17-.486.33-1.04h.8l.04 1.47h1.53v.77h-1.52v2.81c0 .374.01.637.03.79.02.154.063.254.13.3.066.04.183.06.35.06a2.406 2.406 0 0 0 .97-.19l.19.56c-.187.14-.46.267-.82.38-.36.114-.71.17-1.05.17Zm4.922.02c-.88 0-1.537-.256-1.97-.77-.427-.52-.64-1.226-.64-2.12 0-.6.11-1.12.33-1.56.226-.44.543-.776.95-1.01.406-.233.876-.35 1.41-.35.666 0 1.18.177 1.54.53.36.347.546.844.56 1.49 0 .44-.027.767-.08.98h-3.25c.026.607.17 1.08.43 1.42.26.334.63.5 1.11.5.26 0 .526-.043.8-.13.28-.086.5-.19.66-.31l.25.55c-.18.194-.474.374-.88.54-.4.16-.807.24-1.22.24Zm.78-3.41c.013-.186.02-.33.02-.43 0-.886-.297-1.33-.89-1.33-.327 0-.58.13-.76.39-.18.26-.28.717-.3 1.37h1.93Zm2.778-4.01-.74-.13v-.54l1.85-.22h.02l.27.19v7.33l.73.08v.6h-2.83v-.6l.7-.09v-6.62Zm6.341.63-1.08-.13v-.62h3.12l1.19 4.3.28 1.17.24-1.17 1.18-4.3h3.09v.62l-1.09.13.8 5.97.81.11v.6h-3.19v-.6l.88-.1-.44-4.38-.19-1.83-.37 1.54-1.45 5.06h-1.06l-1.48-4.8-.51-1.8-.15 1.83-.38 4.38 1.01.1v.6h-2.78v-.6l.84-.1.73-5.98Zm9.016 3.91c0-.626.124-1.16.37-1.6.254-.44.59-.77 1.01-.99a2.84 2.84 0 0 1 1.37-.34c.84 0 1.487.26 1.94.78.46.514.69 1.214.69 2.1 0 .634-.126 1.174-.38 1.62-.246.44-.58.77-1 .99-.413.214-.87.32-1.37.32-.833 0-1.48-.256-1.94-.77-.46-.52-.69-1.223-.69-2.11Zm2.71 2.23c.754 0 1.13-.726 1.13-2.18 0-.76-.09-1.336-.27-1.73-.18-.4-.473-.6-.88-.6-.773 0-1.16.727-1.16 2.18 0 .76.094 1.34.28 1.74.194.394.494.59.9.59Zm3.58-.06.56-.09v-3.92l-.64-.18v-.69l1.66-.21.12.08.15.33v.42c.22-.213.533-.4.94-.56.413-.166.77-.25 1.07-.25.36 0 .65.06.87.18.226.12.396.307.51.56.22-.2.51-.373.87-.52.36-.146.713-.22 1.06-.22.593 0 1.013.174 1.26.52.246.347.37.914.37 1.7v2.76l.65.09v.6h-2.59v-.6l.52-.09v-2.72c0-.52-.064-.883-.19-1.09-.12-.213-.354-.32-.7-.32-.187 0-.38.044-.58.13-.194.08-.367.18-.52.3.046.254.07.57.07.95v2.75l.62.09v.6h-2.61v-.6l.55-.09v-2.75c0-.346-.024-.616-.07-.81-.04-.2-.12-.343-.24-.43-.12-.093-.294-.14-.52-.14-.214 0-.427.05-.64.15a2.617 2.617 0 0 0-.56.34v3.64l.59.09v.6h-2.58v-.6Zm12.646.71c-.88 0-1.536-.256-1.97-.77-.426-.52-.64-1.226-.64-2.12 0-.6.11-1.12.33-1.56a2.4 2.4 0 0 1 .95-1.01c.407-.233.877-.35 1.41-.35.667 0 1.18.177 1.54.53.36.347.547.844.56 1.49 0 .44-.026.767-.08.98h-3.25c.027.607.17 1.08.43 1.42.26.334.63.5 1.11.5.26 0 .527-.043.8-.13.28-.086.5-.19.66-.31l.25.55c-.18.194-.473.374-.88.54-.4.16-.806.24-1.22.24Zm.78-3.41c.014-.186.02-.33.02-.43 0-.886-.296-1.33-.89-1.33-.326 0-.58.13-.76.39-.18.26-.28.717-.3 1.37h1.93Zm2.758-1.31-.64-.18v-.69l1.66-.21h.03l.25.2v.39l-.01.24c.234-.22.537-.41.91-.57.374-.16.75-.24 1.13-.24.407 0 .724.077.95.23.234.147.4.38.5.7.1.32.15.754.15 1.3v2.76l.61.08v.6h-2.58v-.6l.54-.08v-2.76c0-.346-.023-.616-.07-.81-.046-.2-.133-.343-.26-.43-.12-.093-.293-.14-.52-.14-.38 0-.786.164-1.22.49v3.64l.6.09v.6H83.5v-.6l.58-.09v-3.92Zm7.927 4.7c-.42 0-.73-.096-.93-.29-.2-.193-.3-.5-.3-.92V41.7h-.65v-.52c.053-.02.15-.053.29-.1.14-.053.247-.096.32-.13.113-.086.21-.236.29-.45.06-.14.17-.486.33-1.04h.8l.04 1.47h1.53v.77h-1.52v2.81c0 .374.01.637.03.79.02.154.063.254.13.3.067.04.183.06.35.06a2.406 2.406 0 0 0 .97-.19l.19.56c-.187.14-.46.267-.82.38-.36.114-.71.17-1.05.17Zm2.402-2.86c0-.626.123-1.16.37-1.6.253-.44.59-.77 1.01-.99a2.84 2.84 0 0 1 1.37-.34c.84 0 1.487.26 1.94.78.46.514.69 1.214.69 2.1 0 .634-.127 1.174-.38 1.62-.247.44-.58.77-1 .99-.413.214-.87.32-1.37.32-.833 0-1.48-.256-1.94-.77-.46-.52-.69-1.223-.69-2.11Zm2.71 2.23c.753 0 1.13-.726 1.13-2.18 0-.76-.09-1.336-.27-1.73-.18-.4-.473-.6-.88-.6-.773 0-1.16.727-1.16 2.18 0 .76.093 1.34.28 1.74.193.394.493.59.9.59Zm4.689-.28c.053.08.173.157.36.23.193.067.387.1.58.1.313 0 .547-.063.7-.19a.645.645 0 0 0 .24-.52.616.616 0 0 0-.29-.53c-.193-.14-.52-.31-.98-.51l-.28-.12c-.46-.193-.803-.426-1.03-.7-.227-.273-.34-.626-.34-1.06 0-.3.09-.566.27-.8.18-.24.433-.426.76-.56.327-.133.703-.2 1.13-.2.313 0 .58.02.8.06.227.04.463.094.71.16.133.047.233.074.3.08v1.31h-.79l-.23-.76c-.04-.066-.13-.126-.27-.18-.14-.053-.3-.08-.48-.08-.273 0-.493.06-.66.18a.554.554 0 0 0-.24.48.68.68 0 0 0 .17.47c.113.12.237.214.37.28.133.067.38.177.74.33.36.154.657.3.89.44.24.14.437.324.59.55.16.22.24.49.24.81 0 .494-.193.894-.58 1.2-.387.307-.943.46-1.67.46-.34 0-.647-.03-.92-.09-.267-.06-.577-.14-.93-.24l-.22-.07v-1.32h.83l.23.79Z" fill="#545454"/></svg>