<svg width="127" height="67" viewBox="0 0 127 67" fill="none" xmlns="http://www.w3.org/2000/svg">
<path d="M108.495 46.3533C108.495 71.2034 88.3501 55.2339 63.5 55.2339C19.4681 55.2339 18.5049 71.2034 18.5049 46.3533C18.5049 21.5032 38.6499 1.35815 63.5 1.35815C88.3501 1.35815 108.495 21.5032 108.495 46.3533Z" fill="#F0F0F0"></path>
<path d="M57.5 12.4902L55.5 14.4902L57.5 16.4902L59.5 14.4902L57.5 12.4902ZM59.5 14.4902L61.5 16.4902L63.5 14.4902L61.5 12.4902L59.5 14.4902ZM63.5 14.4902L65.5 16.4902L67.5 14.4902L65.5 12.4902L63.5 14.4902ZM67.5 14.4902L69.5 16.4902L71.5 14.4902L69.5 12.4902L67.5 14.4902ZM69.5 16.4902H52.5V36.4902H74.5V16.4902H69.5ZM54.5 18.4902H72.5V34.4902H66.5V29.4902H60.5V34.4902H54.5V18.4902ZM56.5 20.4902V22.4902H58.5V20.4902H56.5ZM60.5 20.4902V22.4902H62.5V20.4902H60.5ZM64.5 20.4902V22.4902H66.5V20.4902H64.5ZM68.5 20.4902V22.4902H70.5V20.4902H68.5ZM56.5 23.4902V25.4902H58.5V23.4902H56.5ZM60.5 23.4902V25.4902H62.5V23.4902H60.5ZM64.5 23.4902V25.4902H66.5V23.4902H64.5ZM68.5 23.4902V25.4902H70.5V23.4902H68.5ZM56.5 26.4902V28.4902H58.5V26.4902H56.5ZM60.5 26.4902V28.4902H62.5V26.4902H60.5ZM64.5 26.4902V28.4902H66.5V26.4902H64.5ZM68.5 26.4902V28.4902H70.5V26.4902H68.5ZM56.5 29.4902V31.4902H58.5V29.4902H56.5ZM68.5 29.4902V31.4902H70.5V29.4902H68.5ZM62.5 31.4902H64.5V34.4902H62.5V31.4902Z" fill="#545454"></path>
<path d="M22.19 39.8102L21.45 39.6802V39.0602H24.49V39.6802L23.65 39.8102V42.3202H26.69V39.8102L25.92 39.6802V39.0602H28.92V39.6802L28.16 39.8102V45.7902L28.92 45.8902V46.4902H25.91V45.8902L26.69 45.7902V43.0802H23.65V45.7902L24.49 45.8902V46.4902H21.43V45.8902L22.19 45.7902V39.8102ZM29.7996 43.7202C29.7996 43.0936 29.9229 42.5602 30.1696 42.1202C30.4229 41.6802 30.7596 41.3502 31.1796 41.1302C31.5996 40.9036 32.0563 40.7902 32.5496 40.7902C33.3896 40.7902 34.0363 41.0502 34.4896 41.5702C34.9496 42.0836 35.1796 42.7836 35.1796 43.6702C35.1796 44.3036 35.0529 44.8436 34.7996 45.2902C34.5529 45.7302 34.2196 46.0602 33.7996 46.2802C33.3863 46.4936 32.9296 46.6002 32.4296 46.6002C31.5963 46.6002 30.9496 46.3436 30.4896 45.8302C30.0296 45.3102 29.7996 44.6069 29.7996 43.7202ZM32.5096 45.9502C33.2629 45.9502 33.6396 45.2236 33.6396 43.7702C33.6396 43.0102 33.5496 42.4336 33.3696 42.0402C33.1896 41.6402 32.8963 41.4402 32.4896 41.4402C31.7163 41.4402 31.3296 42.1669 31.3296 43.6202C31.3296 44.3802 31.4229 44.9602 31.6096 45.3602C31.8029 45.7536 32.1029 45.9502 32.5096 45.9502ZM37.7687 46.5802C37.3487 46.5802 37.0387 46.4836 36.8387 46.2902C36.6387 46.0969 36.5387 45.7902 36.5387 45.3702V41.7002H35.8887V41.1802C35.942 41.1602 36.0387 41.1269 36.1787 41.0802C36.3187 41.0269 36.4253 40.9836 36.4987 40.9502C36.612 40.8636 36.7087 40.7136 36.7887 40.5002C36.8487 40.3602 36.9587 40.0136 37.1187 39.4602H37.9187L37.9587 40.9302H39.4887V41.7002H37.9687V44.5102C37.9687 44.8836 37.9787 45.1469 37.9987 45.3002C38.0187 45.4536 38.062 45.5536 38.1287 45.6002C38.1953 45.6402 38.312 45.6602 38.4787 45.6602C38.6453 45.6602 38.8187 45.6436 38.9987 45.6102C39.1787 45.5702 39.3287 45.5236 39.4487 45.4702L39.6387 46.0302C39.452 46.1702 39.1787 46.2969 38.8187 46.4102C38.4587 46.5236 38.1087 46.5802 37.7687 46.5802ZM42.6907 46.6002C41.8107 46.6002 41.154 46.3436 40.7207 45.8302C40.294 45.3102 40.0807 44.6036 40.0807 43.7102C40.0807 43.1102 40.1907 42.5902 40.4107 42.1502C40.6374 41.7102 40.954 41.3736 41.3607 41.1402C41.7674 40.9069 42.2374 40.7902 42.7707 40.7902C43.4374 40.7902 43.9507 40.9669 44.3107 41.3202C44.6707 41.6669 44.8574 42.1636 44.8707 42.8102C44.8707 43.2502 44.844 43.5769 44.7907 43.7902H41.5407C41.5674 44.3969 41.7107 44.8702 41.9707 45.2102C42.2307 45.5436 42.6007 45.7102 43.0807 45.7102C43.3407 45.7102 43.6074 45.6669 43.8807 45.5802C44.1607 45.4936 44.3807 45.3902 44.5407 45.2702L44.7907 45.8202C44.6107 46.0136 44.3174 46.1936 43.9107 46.3602C43.5107 46.5202 43.104 46.6002 42.6907 46.6002ZM43.4707 43.1902C43.484 43.0036 43.4907 42.8602 43.4907 42.7602C43.4907 41.8736 43.194 41.4302 42.6007 41.4302C42.274 41.4302 42.0207 41.5602 41.8407 41.8202C41.6607 42.0802 41.5607 42.5369 41.5407 43.1902H43.4707ZM46.2488 39.1802L45.5088 39.0502V38.5102L47.3588 38.2902H47.3788L47.6488 38.4802V45.8102L48.3788 45.8902V46.4902H45.5487V45.8902L46.2488 45.8002V39.1802ZM52.5902 39.8102L51.5102 39.6802V39.0602H54.6302L55.8202 43.3602L56.1002 44.5302L56.3402 43.3602L57.5202 39.0602H60.6102V39.6802L59.5202 39.8102L60.3202 45.7802L61.1302 45.8902V46.4902H57.9402V45.8902L58.8202 45.7902L58.3802 41.4102L58.1902 39.5802L57.8202 41.1202L56.3702 46.1802H55.3102L53.8302 41.3802L53.3202 39.5802L53.1702 41.4102L52.7902 45.7902L53.8002 45.8902V46.4902H51.0202V45.8902L51.8602 45.7902L52.5902 39.8102ZM61.6063 43.7202C61.6063 43.0936 61.7296 42.5602 61.9763 42.1202C62.2296 41.6802 62.5663 41.3502 62.9863 41.1302C63.4063 40.9036 63.8629 40.7902 64.3563 40.7902C65.1963 40.7902 65.8429 41.0502 66.2962 41.5702C66.7563 42.0836 66.9863 42.7836 66.9863 43.6702C66.9863 44.3036 66.8596 44.8436 66.6063 45.2902C66.3596 45.7302 66.0263 46.0602 65.6063 46.2802C65.1929 46.4936 64.7363 46.6002 64.2363 46.6002C63.4029 46.6002 62.7563 46.3436 62.2963 45.8302C61.8363 45.3102 61.6063 44.6069 61.6063 43.7202ZM64.3163 45.9502C65.0696 45.9502 65.4463 45.2236 65.4463 43.7702C65.4463 43.0102 65.3563 42.4336 65.1763 42.0402C64.9963 41.6402 64.7029 41.4402 64.2963 41.4402C63.5229 41.4402 63.1363 42.1669 63.1363 43.6202C63.1363 44.3802 63.2296 44.9602 63.4163 45.3602C63.6096 45.7536 63.9096 45.9502 64.3163 45.9502ZM67.8953 45.8902L68.4553 45.8002V41.8802L67.8153 41.7002V41.0102L69.4753 40.8002L69.5953 40.8802L69.7453 41.2102V41.6302C69.9653 41.4169 70.2786 41.2302 70.6853 41.0702C71.0986 40.9036 71.4553 40.8202 71.7553 40.8202C72.1153 40.8202 72.4053 40.8802 72.6253 41.0002C72.852 41.1202 73.022 41.3069 73.1353 41.5602C73.3553 41.3602 73.6453 41.1869 74.0053 41.0402C74.3653 40.8936 74.7186 40.8202 75.0653 40.8202C75.6586 40.8202 76.0786 40.9936 76.3253 41.3402C76.572 41.6869 76.6953 42.2536 76.6953 43.0402V45.8002L77.3453 45.8902V46.4902H74.7553V45.8902L75.2753 45.8002V43.0802C75.2753 42.5602 75.212 42.1969 75.0853 41.9902C74.9653 41.7769 74.732 41.6702 74.3853 41.6702C74.1986 41.6702 74.0053 41.7136 73.8053 41.8002C73.612 41.8802 73.4386 41.9802 73.2853 42.1002C73.332 42.3536 73.3553 42.6702 73.3553 43.0502V45.8002L73.9753 45.8902V46.4902H71.3653V45.8902L71.9153 45.8002V43.0502C71.9153 42.7036 71.892 42.4336 71.8453 42.2402C71.8053 42.0402 71.7253 41.8969 71.6053 41.8102C71.4853 41.7169 71.312 41.6702 71.0853 41.6702C70.872 41.6702 70.6586 41.7202 70.4453 41.8202C70.2386 41.9136 70.052 42.0269 69.8853 42.1602V45.8002L70.4753 45.8902V46.4902H67.8953V45.8902ZM80.5423 46.6002C79.6623 46.6002 79.0056 46.3436 78.5723 45.8302C78.1456 45.3102 77.9323 44.6036 77.9323 43.7102C77.9323 43.1102 78.0423 42.5902 78.2623 42.1502C78.4889 41.7102 78.8056 41.3736 79.2123 41.1402C79.6189 40.9069 80.0889 40.7902 80.6223 40.7902C81.2889 40.7902 81.8023 40.9669 82.1623 41.3202C82.5223 41.6669 82.7089 42.1636 82.7223 42.8102C82.7223 43.2502 82.6956 43.5769 82.6423 43.7902H79.3923C79.4189 44.3969 79.5623 44.8702 79.8223 45.2102C80.0823 45.5436 80.4523 45.7102 80.9323 45.7102C81.1923 45.7102 81.4589 45.6669 81.7323 45.5802C82.0123 45.4936 82.2323 45.3902 82.3923 45.2702L82.6423 45.8202C82.4623 46.0136 82.1689 46.1936 81.7623 46.3602C81.3623 46.5202 80.9556 46.6002 80.5423 46.6002ZM81.3223 43.1902C81.3356 43.0036 81.3423 42.8602 81.3423 42.7602C81.3423 41.8736 81.0456 41.4302 80.4523 41.4302C80.1256 41.4302 79.8723 41.5602 79.6923 41.8202C79.5123 42.0802 79.4123 42.5369 79.3923 43.1902H81.3223ZM84.0803 41.8802L83.4403 41.7002V41.0102L85.1003 40.8002H85.1303L85.3803 41.0002V41.3902L85.3703 41.6302C85.6036 41.4102 85.907 41.2202 86.2803 41.0602C86.6536 40.9002 87.0303 40.8202 87.4103 40.8202C87.817 40.8202 88.1336 40.8969 88.3603 41.0502C88.5936 41.1969 88.7603 41.4302 88.8603 41.7502C88.9603 42.0702 89.0103 42.5036 89.0103 43.0502V45.8102L89.6203 45.8902V46.4902H87.0403V45.8902L87.5803 45.8102V43.0502C87.5803 42.7036 87.557 42.4336 87.5103 42.2402C87.4636 42.0402 87.377 41.8969 87.2503 41.8102C87.1303 41.7169 86.957 41.6702 86.7303 41.6702C86.3503 41.6702 85.9436 41.8336 85.5103 42.1602V45.8002L86.1103 45.8902V46.4902H83.5003V45.8902L84.0803 45.8002V41.8802ZM92.007 46.5802C91.587 46.5802 91.277 46.4836 91.077 46.2902C90.877 46.0969 90.777 45.7902 90.777 45.3702V41.7002H90.127V41.1802C90.1803 41.1602 90.277 41.1269 90.417 41.0802C90.557 41.0269 90.6636 40.9836 90.737 40.9502C90.8503 40.8636 90.947 40.7136 91.027 40.5002C91.087 40.3602 91.197 40.0136 91.357 39.4602H92.157L92.197 40.9302H93.727V41.7002H92.207V44.5102C92.207 44.8836 92.217 45.1469 92.237 45.3002C92.257 45.4536 92.3003 45.5536 92.367 45.6002C92.4336 45.6402 92.5503 45.6602 92.717 45.6602C92.8836 45.6602 93.057 45.6436 93.237 45.6102C93.417 45.5702 93.567 45.5236 93.687 45.4702L93.877 46.0302C93.6903 46.1702 93.417 46.2969 93.057 46.4102C92.697 46.5236 92.347 46.5802 92.007 46.5802ZM94.409 43.7202C94.409 43.0936 94.5323 42.5602 94.779 42.1202C95.0323 41.6802 95.369 41.3502 95.789 41.1302C96.209 40.9036 96.6657 40.7902 97.159 40.7902C97.999 40.7902 98.6457 41.0502 99.099 41.5702C99.559 42.0836 99.789 42.7836 99.789 43.6702C99.789 44.3036 99.6623 44.8436 99.409 45.2902C99.1623 45.7302 98.829 46.0602 98.409 46.2802C97.9957 46.4936 97.539 46.6002 97.039 46.6002C96.2057 46.6002 95.559 46.3436 95.099 45.8302C94.639 45.3102 94.409 44.6069 94.409 43.7202ZM97.119 45.9502C97.8723 45.9502 98.249 45.2236 98.249 43.7702C98.249 43.0102 98.159 42.4336 97.979 42.0402C97.799 41.6402 97.5057 41.4402 97.099 41.4402C96.3257 41.4402 95.939 42.1669 95.939 43.6202C95.939 44.3802 96.0323 44.9602 96.219 45.3602C96.4123 45.7536 96.7123 45.9502 97.119 45.9502ZM101.808 45.6702C101.861 45.7502 101.981 45.8269 102.168 45.9002C102.361 45.9669 102.555 46.0002 102.748 46.0002C103.061 46.0002 103.295 45.9369 103.448 45.8102C103.608 45.6769 103.688 45.5036 103.688 45.2902C103.688 45.0702 103.591 44.8936 103.398 44.7602C103.205 44.6202 102.878 44.4502 102.418 44.2502L102.138 44.1302C101.678 43.9369 101.335 43.7036 101.108 43.4302C100.881 43.1569 100.768 42.8036 100.768 42.3702C100.768 42.0702 100.858 41.8036 101.038 41.5702C101.218 41.3302 101.471 41.1436 101.798 41.0102C102.125 40.8769 102.501 40.8102 102.928 40.8102C103.241 40.8102 103.508 40.8302 103.728 40.8702C103.955 40.9102 104.191 40.9636 104.438 41.0302C104.571 41.0769 104.671 41.1036 104.738 41.1102V42.4202H103.948L103.718 41.6602C103.678 41.5936 103.588 41.5336 103.448 41.4802C103.308 41.4269 103.148 41.4002 102.968 41.4002C102.695 41.4002 102.475 41.4602 102.308 41.5802C102.148 41.6936 102.068 41.8536 102.068 42.0602C102.068 42.2469 102.125 42.4036 102.238 42.5302C102.351 42.6502 102.475 42.7436 102.608 42.8102C102.741 42.8769 102.988 42.9869 103.348 43.1402C103.708 43.2936 104.005 43.4402 104.238 43.5802C104.478 43.7202 104.675 43.9036 104.828 44.1302C104.988 44.3502 105.068 44.6202 105.068 44.9402C105.068 45.4336 104.875 45.8336 104.488 46.1402C104.101 46.4469 103.545 46.6002 102.818 46.6002C102.478 46.6002 102.171 46.5702 101.898 46.5102C101.631 46.4502 101.321 46.3702 100.968 46.2702L100.748 46.2002V44.8802H101.578L101.808 45.6702Z" fill="#545454"></path>
</svg>
